# xmcd
#
# Track frame offsets:
#	150
#	9055
#	19228
#	32642
#	41685
#	52127
#	60959
#	67371
#	74632
#	84925
#	97703
#	111693
#	118329
#	127763
#	154541
#
# Disc length: 2282 seconds
#
# Revision: 1
# Processed by: cddbd v1.5.2PL0 Copyright (c) Steve Scherf et al.
# Submitted via: audiograbber 1.83.01
#
DISCID=c608e80f
DTITLE=The Nu NIles - Destination Now
DYEAR=1900
DGENRE=
TTITLE0=I let her mess my Hair
TTITLE1=Let me go Home
TTITLE2=A Cheat and a Liar
TTITLE3=I'm gonna live till I die
TTITLE4=Destination Now
TTITLE5=Rose in my heart
TTITLE6=I'm Dead
TTITLE7=Dom
TTITLE8=Rock Steady Go
TTITLE9=Prowl Car
TTITLE10=El crujir de tus rodillas
TTITLE11=I won't say I'm in love
TTITLE12=Long Time Alone
TTITLE13=Go Go Go
TTITLE14=Daten-CD
EXTD=
EXTT0=
EXTT1=
EXTT2=
EXTT3=
EXTT4=
EXTT5=
EXTT6=
EXTT7=
EXTT8=
EXTT9=
EXTT10=
EXTT11=
EXTT12=
EXTT13=
EXTT14=
PLAYORDER=
